<svg width="36" height="36" viewBox="0 0 36 36" fill="none" xmlns="http://www.w3.org/2000/svg">
<circle cx="18" cy="18" r="18" transform="matrix(1 0 0 -1 0 36)" fill="url(#paint0_linear_300_1609)"/>
<path d="M11.0423 18.5883L16.5119 24.058C16.6681 24.2141 16.8762 24.2998 17.098 24.2998C17.3202 24.2998 17.5282 24.214 17.6843 24.058L18.1809 23.5613C18.3369 23.4054 18.4228 23.1971 18.4228 22.9751C18.4228 22.7532 18.3369 22.538 18.1809 22.3821L14.99 19.1842H25.1276C25.5847 19.1842 25.9458 18.8264 25.9458 18.3692V17.667C25.9458 17.2098 25.5847 16.8159 25.1276 16.8159H14.9538L18.1808 13.6001C18.3368 13.444 18.4227 13.2414 18.4227 13.0194C18.4227 12.7977 18.3368 12.5922 18.1808 12.4361L17.6842 11.941C17.528 11.7849 17.3201 11.6998 17.0979 11.6998C16.876 11.6998 16.6679 11.786 16.5118 11.9421L11.0422 17.4117C10.8857 17.5683 10.7996 17.7774 10.8003 17.9997C10.7998 18.2227 10.8857 18.4319 11.0423 18.5883Z" fill="white"/>
<defs>
<linearGradient id="paint0_linear_300_1609" x1="0" y1="18.0004" x2="36" y2="18.0004" gradientUnits="userSpaceOnUse">
<stop stop-color="#036A38"/>
<stop offset="1" stop-color="#93CD24"/>
</linearGradient>
</defs>
</svg>
