<svg width="36" height="36" viewBox="0 0 36 36" fill="none" xmlns="http://www.w3.org/2000/svg">
<circle cx="18" cy="18" r="18" transform="rotate(180 18 18)" fill="url(#paint0_linear_300_1605)"/>
<path d="M24.9577 18.5883L19.4881 24.058C19.3319 24.2141 19.1238 24.2998 18.902 24.2998C18.6798 24.2998 18.4718 24.214 18.3157 24.058L17.8191 23.5613C17.6631 23.4054 17.5772 23.1971 17.5772 22.9751C17.5772 22.7532 17.6631 22.538 17.8191 22.3821L21.01 19.1842H10.8724C10.4153 19.1842 10.0542 18.8264 10.0542 18.3692V17.667C10.0542 17.2098 10.4153 16.8159 10.8724 16.8159H21.0462L17.8192 13.6001C17.6632 13.444 17.5773 13.2414 17.5773 13.0194C17.5773 12.7977 17.6632 12.5922 17.8192 12.4361L18.3158 11.941C18.472 11.7849 18.6799 11.6998 18.9021 11.6998C19.124 11.6998 19.3321 11.786 19.4882 11.9421L24.9578 17.4117C25.1143 17.5683 25.2004 17.7774 25.1997 17.9997C25.2002 18.2227 25.1143 18.4319 24.9577 18.5883Z" fill="white"/>
<defs>
<linearGradient id="paint0_linear_300_1605" x1="0" y1="18.0004" x2="36" y2="18.0004" gradientUnits="userSpaceOnUse">
<stop stop-color="#036A38"/>
<stop offset="1" stop-color="#93CD24"/>
</linearGradient>
</defs>
</svg>
