<svg width="11" height="7" viewBox="0 0 11 7" fill="none" xmlns="http://www.w3.org/2000/svg">
<path d="M5.18171 5.73268L5.12428 5.87125C5.05344 5.84189 4.98909 5.79884 4.93492 5.74456L5.18171 5.73268ZM5.18171 5.73268C5.23436 5.7545 5.2908 5.7657 5.3478 5.76564M5.18171 5.73268C5.12906 5.71086 5.08123 5.67885 5.04099 5.63849L5.76067 5.74456M5.18171 5.73268L5.12428 5.87125C5.19519 5.90064 5.2712 5.91572 5.34795 5.91564L5.3478 5.76564M5.18171 5.73268L5.76067 5.74456M1.42111 0.579251C1.193 0.350995 0.823442 0.35125 0.595364 0.579183C0.367152 0.807249 0.3672 1.17684 0.59533 1.40497L4.93478 5.74441L5.24173 4.612L5.3478 4.50593M1.42111 0.579251L1.31501 0.685283L1.42108 0.579217L1.42111 0.579251ZM1.42111 0.579251L5.3478 4.50593M5.3478 4.50593L5.45386 4.612L9.38058 0.685283C9.55015 0.515713 9.82474 0.515713 9.9942 0.685283C10.1637 0.854852 10.1638 1.12944 9.9942 1.2989M5.3478 4.50593L9.27452 0.579217C9.50265 0.351087 9.87224 0.351038 10.1003 0.579251C10.3282 0.807329 10.3285 1.17689 10.1002 1.405M10.1002 1.405L10.1003 1.40497L9.9942 1.2989M10.1002 1.405L9.9942 1.2989M10.1002 1.405L5.76082 5.74441L5.65461 5.63849M9.9942 1.2989L5.65461 5.63849M5.65461 5.63849L5.76067 5.74456M5.65461 5.63849C5.61436 5.67885 5.56654 5.71086 5.51389 5.73268C5.46124 5.7545 5.40479 5.7657 5.3478 5.76564M5.76067 5.74456C5.70651 5.79884 5.64216 5.84189 5.57132 5.87125C5.50041 5.90064 5.4244 5.91572 5.34764 5.91564L5.3478 5.76564" fill="#6CC5AA" stroke="#6CC5AA" strokeWidth="0.3"/>
</svg>
