<svg width="16" height="13" viewBox="0 0 16 13" fill="none" xmlns="http://www.w3.org/2000/svg">
<path d="M0.855876 5.79572H13.4686L9.67246 1.99956C9.60396 1.9334 9.54932 1.85426 9.51173 1.76676C9.47414 1.67926 9.45436 1.58514 9.45353 1.48992C9.4527 1.39469 9.47085 1.30024 9.50691 1.2121C9.54297 1.12396 9.59623 1.04388 9.66357 0.976543C9.73091 0.909203 9.81098 0.855949 9.89913 0.819887C9.98727 0.783825 10.0817 0.765679 10.1769 0.766507C10.2722 0.767334 10.3663 0.787119 10.4538 0.824707C10.5413 0.862295 10.6204 0.916933 10.6866 0.985433L15.707 6.00586C15.8415 6.14035 15.917 6.32274 15.917 6.51292C15.917 6.7031 15.8415 6.88549 15.707 7.01998L10.6866 12.0404C10.5513 12.1711 10.3701 12.2433 10.1821 12.2417C9.99405 12.2401 9.81417 12.1646 9.68119 12.0317C9.54822 11.8987 9.47279 11.7188 9.47116 11.5308C9.46952 11.3427 9.54181 11.1615 9.67246 11.0263L13.4686 7.23012H0.855876C0.665662 7.23012 0.483237 7.15456 0.348736 7.02006C0.214234 6.88556 0.138673 6.70313 0.138673 6.51292C0.138673 6.32271 0.214234 6.14028 0.348736 6.00578C0.483237 5.87128 0.665662 5.79572 0.855876 5.79572Z" fill="white"/>
</svg>
