<svg width="16" height="13" viewBox="0 0 16 13" fill="none" xmlns="http://www.w3.org/2000/svg">
<path d="M15.1998 5.79572H2.58705L6.38321 1.99956C6.45171 1.9334 6.50635 1.85426 6.54393 1.76676C6.58152 1.67926 6.60131 1.58514 6.60213 1.48992C6.60296 1.39469 6.58482 1.30024 6.54875 1.2121C6.51269 1.12396 6.45944 1.04388 6.3921 0.976543C6.32476 0.909203 6.24468 0.855949 6.15654 0.819887C6.0684 0.783825 5.97396 0.765679 5.87873 0.766507C5.7835 0.767334 5.68939 0.787119 5.60188 0.824707C5.51438 0.862295 5.43524 0.916933 5.36908 0.985433L0.348659 6.00586C0.214204 6.14035 0.138672 6.32274 0.138672 6.51292C0.138672 6.7031 0.214204 6.88549 0.348659 7.01998L5.36908 12.0404C5.50435 12.1711 5.68552 12.2433 5.87356 12.2417C6.06161 12.2401 6.2415 12.1646 6.37447 12.0317C6.50745 11.8987 6.58287 11.7188 6.58451 11.5308C6.58614 11.3427 6.51385 11.1615 6.38321 11.0263L2.58705 7.23012H15.1998C15.39 7.23012 15.5724 7.15456 15.7069 7.02006C15.8414 6.88556 15.917 6.70313 15.917 6.51292C15.917 6.32271 15.8414 6.14028 15.7069 6.00578C15.5724 5.87128 15.39 5.79572 15.1998 5.79572Z" fill="white"/>
</svg>
